# xmcd CD database file
#
# Track frame offsets:
#	150
#	15824
#	34535
#	50345
#	69245
#	86931
#	107302
#	121786
#	136371
#	154670
#	174262
#	194443
#
# Disc length: 2777 seconds
#
# Revision: 0
# Processed by: cddbd v1.5.2PL0 Copyright (c) Steve Scherf et al.
# Submitted via: CDex 1.73
#
DISCID=870ad70c
DTITLE=Branded - That's What I Do
DYEAR=2009
DGENRE=Country
TTITLE0=That's What I Do For My Country
TTITLE1=Another Long Slow Dance
TTITLE2=Cowboy Rock and Roll
TTITLE3=Cold Wind Blowin'
TTITLE4=When I Open My Eyes
TTITLE5=Better
TTITLE6=Hillbilly Rap
TTITLE7=Boogie Woogie
TTITLE8=Phantom of Nashville
TTITLE9=There Are No Words For That
TTITLE10=Heroes
TTITLE11=Freight Train
EXTD=YEAR: 2009
EXTT0=
EXTT1=
EXTT2=
EXTT3=
EXTT4=
EXTT5=
EXTT6=
EXTT7=
EXTT8=
EXTT9=
EXTT10=
EXTT11=
PLAYORDER=
